<?xml version="1.0" encoding="UTF-8" standalone="no"?>
<svg
   height="153.84596"
   width="500"
   viewBox="0 0 500 153.84596"
   fill="none"
   preserveAspectRatio="xMidYMid"
   aria-label="OTB Logo"
   role="img"
   class="w-[5.2rem] overflow-visible"
   version="1.1"
   id="svg3"
   sodipodi:docname="svgexport-1.svg"
   inkscape:version="1.4 (86a8ad7, 2024-10-11)"
   xmlns:inkscape="http://www.inkscape.org/namespaces/inkscape"
   xmlns:sodipodi="http://sodipodi.sourceforge.net/DTD/sodipodi-0.dtd"
   xmlns="http://www.w3.org/2000/svg"
   xmlns:svg="http://www.w3.org/2000/svg">
  <defs
     id="defs3" />
  <sodipodi:namedview
     id="namedview3"
     pagecolor="#ffffff"
     bordercolor="#000000"
     borderopacity="0.25"
     inkscape:showpageshadow="2"
     inkscape:pageopacity="0.0"
     inkscape:pagecheckerboard="0"
     inkscape:deskcolor="#d1d1d1"
     inkscape:zoom="0.50228378"
     inkscape:cx="156.28615"
     inkscape:cy="82.622615"
     inkscape:window-width="1920"
     inkscape:window-height="1001"
     inkscape:window-x="-9"
     inkscape:window-y="-9"
     inkscape:window-maximized="1"
     inkscape:current-layer="svg3" />
  <path
     d="m 98.31334,153.84596 c 31.14419,-7.72564 53.07621,-37.11342 53.07621,-72.159527 0,-40.710653 -27.67945,-74.351507 -69.0326,-74.351507 -41.28944,0 -69.13004,33.640854 -69.13004,74.351507 0,35.046107 21.7733,64.680687 52.91659,72.159527 C 26.25375,147.14148 0,115.44472 0,77.565285 0,34.790724 33.45733,0 82.10118,0 c 48.64224,0 82.35566,34.790724 82.35566,77.565285 0,37.879435 -26.24933,69.576195 -66.1435,76.280675 z m 49.65955,-72.297988 c 0,42.114688 -32.04996,71.826188 -65.42364,71.826188 -34.81008,0 -66.0585,-30.15637 -66.0585,-70.781958 0,-31.087204 15.93575,-57.77608 41.67084,-68.087413 -17.75235,9.536654 -26.76477,29.560795 -26.50541,54.815635 0,35.307006 19.49965,82.524256 60.22447,77.309516 23.43138,-3.00064 40.66277,-28.09163 40.92239,-58.757617 0,-31.433357 -12.75576,-70.200743 -45.95379,-77.672144 36.80508,2.580317 61.12364,33.939123 61.12364,71.347793 z"
     fill="#FFFFFF"
     id="path1"
     style="fill:#000000;stroke-width:6.41025" />
  <path
     d="m 202.82282,36.860914 -3.94167,-4.650058 3.34295,-27.057485 3.94102,4.650078 z m 95.01077,100.492116 -9.90383,6.84743 h -0.12885 c -9.68588,0 -21.05125,-2.62821 -21.05125,-22.47562 V 8.803194 l -58.01082,-0.0484 -3.7968,-4.37827 h 124.42549 l 3.34615,27.309459 h -4.30769 C 325.57266,21.117214 318.65728,8.770179 294.36308,8.770179 L 280.21182,8.708578 V 115.95626 c 0,16.08652 5.52884,21.39677 17.62177,21.39677 z M 249.09327,16.234979 h -14.18075 c -21.36279,0 -25.48266,13.914918 -26.51086,21.128819 h -3.06859 l 3.29038,-26.105736 51.92942,0.05615 z m 37.81085,130.649451 h 0.51346 v 3.86858 h -57.65377 v -3.34807 c 13.96216,0 21.10638,-5.93653 21.10638,-25.26087 V 18.402668 l 12.75511,-5.53698 0.041,108.949542 c -0.001,18.86792 10.10768,25.0692 23.23779,25.0692 z m -44.01597,-9.5314 3.23012,-0.23205 c -2.92563,4.89102 -7.37755,7.1955 -14.06536,7.70704 z M 296.165,16.234979 h -13.43652 v -4.976917 h 12.14678 c 22.13587,0 28.37689,11.416139 31.20958,21.199268 l -3.975,3.985443 C 320.30985,28.464194 316.2387,16.234979 296.165,16.234979 Z m 5.14743,125.496891 -11.30447,7.90896 v -3.86025 l 11.30447,-7.91217 z M 328.07714,37.364888 h -3.88204 l 3.84615,-3.653137 h 3.87563 z"
     fill="#FFFFFF"
     id="path2"
     style="fill:#000000;stroke-width:6.41025" />
  <path
     d="m 486.53015,114.4287 c 0,-22.166639 -17.93011,-36.861492 -59.1089,-36.861492 h -20.33011 v 44.065332 c 0,16.41921 -9.24229,22.6583 -20.69997,22.6583 l -10.32434,-6.93525 c 8.50768,0 17.38267,-2.84102 17.38267,-21.39741 V 32.984252 c 0,-19.321001 -7.15384,-25.082403 -21.10511,-25.082403 V 4.379661 h 64.47492 c 21.36472,0 41.24033,14.543263 41.24033,33.507726 0,19.100937 -20.00446,30.663166 -24.64484,32.46701 l 0.51987,0.513461 C 478.38144,72.667214 500,86.334504 500,111.06781 c 0,22.87433 -16.74549,37.72431 -45.91276,39.42687 21.191,-5.00641 32.44291,-21.28395 32.44291,-36.06598 z m -114.18576,23.44035 12.3564,8.76025 v 3.8641 l -12.3564,-8.75961 z M 375.0899,10.67146 c 5.94294,0.187051 9.93525,2.328331 13.0814,7.320568 l -2.7,-0.206859 z m 12.2814,136.21489 c 11.54101,0 22.7942,-7.02307 22.7942,-25.2692 l -0.0231,-41.219817 h 12.66794 l -0.0301,60.685177 h 18.02497 c 19.54677,0 29.08394,-16.10575 29.08394,-32.06983 0,-13.14806 -5.16858,-22.644842 -19.06664,-27.291631 23.88202,4.732045 32.56278,18.847411 32.56278,32.444831 0,18.03331 -16.96601,36.58841 -48.87814,36.58841 h -47.13649 v -3.86794 z M 407.09114,14.177161 v 55.142622 h 31.65702 c 2.05833,0 6.94999,0.251922 9.26601,0.51923 3.09038,-1.546793 16.73139,-7.736272 16.73139,-29.380091 0,-16.494209 -12.61217,-26.281761 -32.94291,-26.281761 z m 3.05128,2.947817 h 12.64935 V 66.59735 h -12.64935 z m 49.77494,52.196087 c 9.20319,-5.616275 21.07113,-15.43357 21.07113,-31.910152 0,-15.673313 -12.92819,-28.391117 -29.39933,-32.769374 21.87369,1.027723 40.94867,11.793504 40.94867,30.664441 0,21.899075 -19.73972,31.547139 -28.13266,34.643289 z"
     fill="#FFFFFF"
     id="path3"
     style="fill:#000000;stroke-width:6.41025" />
</svg>
