<?xml version="1.0" encoding="UTF-8" standalone="no"?>
<!-- Created with Inkscape (http://www.inkscape.org/) -->
<svg
   xmlns:svg="http://www.w3.org/2000/svg"
   xmlns="http://www.w3.org/2000/svg"
   version="1.0"
   width="982.37115"
   height="356.15594"
   id="svg2">
  <defs
     id="defs5" />
  <g
     transform="translate(-25.628822,-20.330481)"
     id="g2384">
    <path
       d="M 187,376.0315 C 181.775,375.61355 175.475,374.78084 173,374.18102 C 170.525,373.5812 165.35,372.35392 161.5,371.45373 C 140.65318,366.5794 122.61717,358.78089 104.76151,346.92084 C 101.51489,344.76438 98.477893,343 98.012619,343 C 97.547345,343 97.016667,342.65915 96.833333,342.24256 C 96.65,341.82597 94.475,339.91818 92,338.00302 C 87.248487,334.32629 72.165405,319.57428 67.969524,314.5 C 56.224061,300.29565 49.929663,290.7895 43.691171,277.83346 C 34.502817,258.75119 31.334863,248.97597 27.379094,227.5 C 25.308572,216.25908 24.995396,181.92882 26.868237,171.5 C 29.479222,156.96086 34.010455,140.33967 37.500331,132.5 C 38.234839,130.85 39.630841,127.475 40.602559,125 C 41.574276,122.525 43.255786,118.925 44.339248,117 C 45.422709,115.075 47.55772,111.15243 49.083717,108.28318 C 51.862775,103.05787 57.485531,94.452634 59.452452,92.414555 C 60.028604,91.81756 62.075,89.353623 64,86.939138 C 75.932939,71.971919 87.680336,61.027306 102.63817,50.941393 C 123.66591,36.762605 142.72214,28.844217 170.5,22.742944 C 184.20543,19.732612 221.01428,19.482438 233.5,22.31476 C 256.227,27.470264 267.42967,31.315987 284.02152,39.658096 C 292.00835,43.673746 299.43335,47.643434 300.52152,48.479625 C 301.60968,49.315816 305.58703,52.271624 309.36006,55.048088 C 320.91536,63.551285 337.65621,79.979362 343.9584,89 C 345.30328,90.925 346.6841,92.725 347.02688,93 C 348.27289,93.999634 355.77279,105.60236 357.69234,109.5 C 358.77581,111.7 360.55518,115.075 361.64649,117 C 362.73779,118.925 364.42572,122.525 365.39744,125 C 366.36916,127.475 367.76516,130.85 368.49967,132.5 C 372.0754,140.53253 377.0672,158.17039 379.11278,170 C 380.80311,179.77524 381.35839,208.76562 380.05131,219 C 378.28884,232.80015 373.64832,251.37041 369.05616,263 C 362.77355,278.91066 351.65091,298.18482 341.64509,310.5 C 335.15245,318.49116 319.10658,334.05863 311.5,339.74633 C 307.65,342.62511 304.05,345.33509 303.5,345.76851 C 302.60815,346.47133 299.22731,348.50921 289.5,354.20731 C 287.85,355.17386 284.475,356.92387 282,358.09622 C 265.18348,366.06185 256.03105,369.01377 231.5,374.38391 C 223.07263,376.22876 200.09945,377.07933 187,376.0315 z M 216.14405,374.00088 C 242.89678,371.41983 260.46406,366.45891 282.5,355.26225 C 287.45,352.74711 292.50899,350.19668 293.7422,349.59463 C 294.97541,348.99258 295.98791,348.1625 295.9922,347.75 C 295.99649,347.3375 296.50535,347 297.12301,347 C 298.49852,347 308.89785,339.62863 314.94486,334.36733 C 324.64876,325.92428 339.58745,310.30574 343.99035,304 C 345.33445,302.075 347.01149,299.90536 347.71709,299.17857 C 348.42269,298.45179 349,297.47143 349,297 C 349,296.52857 349.69123,295.45163 350.53606,294.6068 C 352.21151,292.93135 365.36002,267.74052 366.25049,264.5 C 366.55277,263.4 367.87769,259.575 369.19477,256 C 371.46583,249.83556 373.98472,239.78969 377.46913,223 C 379.50392,213.19538 379.58068,183.66475 377.59599,174.19741 C 376.82378,170.51383 375.66343,164.8 375.01743,161.5 C 374.37143,158.2 373.42824,154.0375 372.92145,152.25 C 372.41465,150.4625 371.52025,147.3125 370.9339,145.25 C 369.85449,141.45317 368.492,137.92587 366.88333,134.76357 C 366.3975,133.80853 366,132.54674 366,131.9596 C 366,130.48937 355.67958,109.57982 354.75,109.16667 C 354.3375,108.98333 354,108.40051 354,107.87151 C 354,106.72002 344.77604,92.918697 341.10231,88.573376 C 337.71561,84.567558 315.07982,61.947062 312.49536,59.985754 C 311.39791,59.152918 308.925,57.374599 307,56.033934 C 305.075,54.693268 303.275,53.289338 303,52.914089 C 302.725,52.53884 300.87415,51.321975 298.88701,50.209944 C 291.28294,45.954623 290.48584,45.485157 290,44.975799 C 288.73658,43.651229 266.51004,33.338922 261.62808,31.812259 C 227.84138,21.246646 201.8843,19.359388 170,25.150266 C 163.06101,26.410536 152.18308,29.256869 147.5,31.037645 C 146.4,31.455928 143.925,32.338987 142,33 C 136.08343,35.03165 134.7921,35.582028 125.5,40.032469 C 120.55,42.403266 116.35,44.715832 116.16667,45.171505 C 115.98333,45.627177 115.40357,46 114.87831,46 C 113.99208,46 98.560195,56.062981 93.662931,59.834338 C 89.598654,62.964217 68.414101,84.49178 65.454015,88.5 C 63.829307,90.7 61.921732,93.110411 61.214959,93.85647 C 59.013382,96.18042 52,106.83969 52,107.8618 C 52,108.39614 51.6625,108.98333 51.25,109.16667 C 50.163229,109.64968 40,130.40051 40,132.13642 C 40,132.94139 39.594032,134.0275 39.097849,134.55 C 38.039284,135.66471 35.081151,143.986 33.961024,149 C 33.530979,150.925 32.511063,155.2 31.694544,158.5 C 30.878024,161.8 29.628083,167.65 28.916895,171.5 C 27.192538,180.83478 27.178442,215.28033 28.895208,224.5 C 31.558227,238.80141 35.608832,254.14736 38.925404,262.5 C 42.129633,270.5697 53.458341,292.31259 55.75,294.79099 C 56.4375,295.53452 57,296.495 57,296.92541 C 57,297.35581 58.0125,298.81791 59.25,300.17451 C 60.4875,301.53112 62.625,304.15205 64,305.99879 C 72.51565,317.43603 89.14012,333.81473 98.790763,340.27522 C 101.38084,342.00911 104.09464,344.00651 104.82143,344.71388 C 105.54821,345.42124 106.52857,346 107,346 C 107.47143,346 108.46548,346.5625 109.20901,347.25 C 115.8551,353.39532 143.76451,365.23713 161.52358,369.4468 C 165.36061,370.35634 169.625,371.36596 171,371.69041 C 174.43687,372.50138 195.4578,374.72224 201.14405,374.87513 C 203.69827,374.94381 210.44827,374.5504 216.14405,374.00088 z M 178.5,363.8652 C 162.82528,361.04887 153.73862,358.60405 142,354.04467 C 134.03064,350.9493 114,340.76865 114,339.81356 C 114,339.3661 113.4375,338.99396 112.75,338.98659 C 112.0625,338.97921 110.375,338.07437 109,336.97583 C 107.625,335.87729 102.7615,332.01264 98.192227,328.38773 C 89.307607,321.33934 79.374679,311.70345 75.114387,306 C 73.676474,304.075 71.906503,301.87436 71.181118,301.10969 C 70.455733,300.34502 69.105733,298.5452 68.181118,297.11009 C 67.256503,295.67498 65.825,293.70098 65,292.72342 C 62.732993,290.0372 59.598382,284.59356 53.642674,273 C 33.344557,233.48709 30.386912,184.42231 45.717065,141.52097 C 48.563427,133.55545 57.38501,115.33704 59.558669,112.93517 C 60.351401,112.05921 61,111.01576 61,110.61639 C 61,109.87148 68.869877,97.899416 69.950784,97 C 70.281276,96.725 72.11505,94.478825 74.025839,92.0085 C 78.708601,85.954483 90.820041,73.884897 96.709761,69.402969 C 99.344392,67.39808 101.725,65.4368 102,65.044568 C 103.32151,63.159698 121.45844,51.877931 129,48.249674 C 154.72486,35.873406 173.51177,31.709235 203.5,31.736541 C 221.03412,31.752506 224.97953,32.067072 235.5,34.287893 C 256.49752,38.720366 272.14398,44.818879 289.5,55.335446 C 296.76025,59.734661 303.70949,64.49845 305,65.960884 C 305.275,66.27252 307.96876,68.546308 310.98613,71.013747 C 319.13265,77.675513 327.08587,85.927676 334.16355,95.062339 C 335.62851,96.953053 337.76601,99.581354 338.91355,100.90301 C 340.0611,102.22467 341,103.65502 341,104.08158 C 341,104.50814 341.7253,105.58244 342.61177,106.46892 C 343.49825,107.35539 347.24023,114.02503 350.92729,121.29034 C 370.22858,159.32336 374.90159,199.93699 364.59919,240.11443 C 358.80576,262.70775 346.85804,286.73387 333.32744,303 C 328.07492,309.31443 312.36001,324.90929 307.08544,329.04152 C 304.65744,330.94369 302.18244,332.97271 301.58544,333.55046 C 299.62506,335.44765 280.64248,346.56396 273.79612,349.82405 C 261.67148,355.59754 245.2253,360.57926 228.5,363.54472 C 219.51094,365.13851 186.75533,365.34846 178.5,363.8652 z M 225.75658,359.52658 C 264.66165,353.64328 297.57838,335.81094 324.56967,305.99549 C 329.35479,300.7097 341.00551,285.1623 341.80176,283 C 342.10555,282.175 342.6302,281.275 342.96764,281 C 344.21137,279.9864 353.64441,260.35449 354.98002,256 C 355.73915,253.525 356.66881,251.05 357.04593,250.5 C 357.42305,249.95 357.97528,248.375 358.2731,247 C 358.57092,245.625 359.48761,241.8 360.31018,238.5 C 367.39805,210.06493 367.39805,186.93507 360.31018,158.5 C 359.48761,155.2 358.57092,151.375 358.2731,150 C 357.97528,148.625 357.42305,147.05 357.04593,146.5 C 356.66881,145.95 355.73624,143.475 354.97355,141 C 353.06341,134.80137 341.76234,112.37913 338.5,108.31514 C 337.95,107.62999 337.03781,106.49129 336.47292,105.7847 C 335.90803,105.07812 334.34116,102.925 332.991,101 C 326.84341,92.235068 311.68983,76.818496 302.46687,69.946131 C 299.18509,67.500759 295.91192,64.944067 295.19317,64.264594 C 293.43932,62.60661 282.11727,56 281.02976,56 C 280.55506,56 280.01667,55.6625 279.83333,55.25 C 279.27297,53.989185 261.89331,46 259.7109,46 C 258.9899,46 257.9725,45.641864 257.45,45.204141 C 255.60295,43.656783 240.07011,39.601726 226.4398,37.108512 C 218.74553,35.701099 186.85518,35.66331 179.82629,37.053277 C 176.89683,37.632579 172.25,38.551386 169.5,39.09507 C 161.96931,40.583912 148.51544,44.495872 142.5,46.945819 C 137.22663,49.093536 122.46149,56.569268 122.16667,57.240778 C 121.98333,57.65835 121.37106,58 120.80607,58 C 119.85298,58 110.07846,64.51181 105.5,68.196942 C 90.911645,79.938877 84.641536,85.846427 79.174725,93 C 77.703626,94.925 75.4875,97.620402 74.25,98.989782 C 73.0125,100.35916 72,101.78952 72,102.16835 C 72,102.54719 71.336375,103.52077 70.525278,104.33187 C 69.71418,105.14296 67.356164,108.66261 65.285241,112.15329 C 63.214319,115.64398 60.985482,119.4 60.332271,120.5 C 57.905188,124.58718 52,136.97911 52,137.98512 C 52,138.55823 51.602502,139.80853 51.116671,140.76357 C 49.531129,143.8804 48.249191,147.41918 47.046222,152 C 46.396263,154.475 45.487602,157.85 45.026976,159.5 C 44.130434,162.71149 42.688653,171.07328 41.027987,182.69263 C 39.714723,191.88129 39.714723,205.11871 41.027987,214.30737 C 42.688653,225.92672 44.130434,234.28851 45.026976,237.5 C 45.487602,239.15 46.396263,242.525 47.046222,245 C 48.249191,249.58082 49.531129,253.1196 51.116671,256.23643 C 51.602502,257.19147 52,258.38886 52,258.8973 C 52,260.13615 58.530524,273.59905 61.294486,278.05819 C 62.507519,280.0152 64.828394,283.8402 66.451988,286.55819 C 68.075581,289.27619 69.672262,291.725 70.000167,292 C 70.328073,292.275 71.689211,294.075 73.02492,296 C 80.162689,306.28683 91.151198,317.20211 106.5,329.252 C 107.05,329.68379 108.58135,330.92873 109.90301,332.01854 C 111.22467,333.10834 112.65502,334 113.08158,334 C 113.50814,334 114.5017,334.64456 115.2895,335.43236 C 118.72036,338.86322 142.31311,349.93831 154,353.60415 C 164.19594,356.80232 169.04574,357.8946 182,359.91036 C 191.09501,361.3256 215.26168,361.11364 225.75658,359.52658 z M 189.5,350.94071 C 165.25666,349.15312 142.80682,341.6029 121.00449,327.90463 C 117.43196,325.66003 114.28196,323.52575 114.00449,323.16177 C 113.72702,322.7978 111.925,321.39571 110,320.04603 C 102.73096,314.94947 88.59185,301.32067 83.475321,294.47869 C 81.838895,292.29041 79.92701,289.89487 79.226688,289.15526 C 78.526366,288.41565 77.226076,286.39065 76.337155,284.65526 C 75.448234,282.91987 74.407791,281.275 74.02506,281 C 73.425375,280.56911 71.878491,277.88254 66.251976,267.5 C 65.655863,266.4 64.406228,263.7 63.475009,261.5 C 62.54379,259.3 61.122757,256.15 60.317159,254.5 C 57.325101,248.37176 53.306724,233.29297 51.092461,219.8847 C 49.709474,211.51015 49.67297,185.20576 51.033527,177.41678 C 53.771486,161.74239 57.220436,148.48505 59.984096,143.0119 C 60.542843,141.90535 61.45,140.10611 62,139.01357 C 62.55,137.92103 63,136.34603 63,135.51357 C 63,134.68111 63.45,134 64,134 C 64.55,134 65,133.33869 65,132.53042 C 65,131.05153 66.002422,129.10481 71.967213,119 C 81.452706,102.93085 101.51123,81.12751 113.11485,74.273087 C 114.70168,73.335721 116,72.215808 116,71.784392 C 116,71.352977 116.50876,71 117.13057,71 C 117.75238,71 120.33988,69.517924 122.88057,67.706497 C 134.52662,59.403247 155.48543,51.388918 177.5,46.820864 C 185.76888,45.10506 220.68361,45.118567 228.5,46.840593 C 241.01629,49.598055 243.74538,50.325116 252.5,53.23448 C 260.92885,56.035583 278.88863,64.323766 280,65.92534 C 280.275,66.321639 281.175,66.897195 282,67.204354 C 282.825,67.511513 287.775,70.824129 293,74.565724 C 302.57373,81.421423 317.03524,95.101173 322.52978,102.49919 C 324.1634,104.69874 326.25249,107.33351 327.17219,108.35423 C 328.09189,109.37495 329.38399,111.51281 330.04351,113.10504 C 330.70303,114.69727 331.63805,116 332.12132,116 C 332.60459,116 333,116.47162 333,117.04804 C 333,117.62446 334.48295,120.43696 336.29544,123.29804 C 351.88913,147.91322 359.49323,188.27067 354.53232,220.08713 C 351.79407,237.64869 348.29924,249.21805 340.66313,266 C 338.44166,270.88215 327.55676,287.60463 322.11209,294.5 C 315.47323,302.90773 303.20382,315.01284 297,319.27581 C 294.525,320.97652 292.275,322.66784 292,323.0343 C 291.725,323.40076 290.40334,324.27883 289.06299,324.98557 C 287.72263,325.6923 286.14763,326.66601 285.56299,327.14936 C 282.74043,329.48288 276.63765,333.04931 269.91656,336.29305 C 245.32983,348.15913 218.37136,353.06954 189.5,350.94071 z M 222.75658,343.52658 C 234.09671,341.8117 244.83284,339.10551 254.01604,335.6472 C 261.31465,332.8986 275.32098,325.90279 275.83333,324.75 C 276.01667,324.3375 276.61812,324 277.16991,324 C 278.33857,324 291.56285,314.98756 294.74693,312.02114 C 295.94012,310.90951 297.18796,310 297.51989,310 C 298.70724,310 315.16154,292.62507 318.25262,288.10727 C 319.98637,285.57327 321.98223,282.91192 322.68786,282.19317 C 324.27971,280.57168 329.71578,271.31884 333.37638,264 C 334.88937,260.975 336.51119,257.825 336.98042,257 C 338.65614,254.05373 341.33051,247.47625 342.1582,244.26548 C 342.62119,242.46947 343.45651,239.3125 344.01447,237.25 C 346.3751,228.52393 347.17413,223.80637 348.37585,211.5 C 350.04517,194.40512 348.53087,176.58084 343.95809,159.5 C 343.36912,157.3 342.5338,154.14303 342.10182,152.48452 C 340.58332,146.65444 334.00576,132.96668 327.86502,122.85805 C 320.41567,110.59524 315.30251,104.05946 306.07073,95 C 297.11651,86.212917 295.89341,85.148835 290,81.018666 C 288.075,79.669604 285.90536,77.988514 285.17857,77.282913 C 284.45179,76.577311 283.47143,76 283,76 C 282.52857,76 281.53081,75.4375 280.78276,74.75 C 277.10673,71.371533 259.11155,62.718559 248.5,59.226842 C 240.06929,56.452729 236.49046,55.574569 223.20078,53.019018 C 216.22459,51.677527 190.4945,51.71313 182.1153,53.075868 C 154.82972,57.513413 130.3708,68.51888 110,85.524656 C 86.634618,105.03035 69.772918,131.13844 62.223632,159.5 C 58.791723,172.39318 57.974826,176.58777 56.902481,186.82301 C 55.622492,199.04015 56.847311,217.93018 59.507534,227 C 60.233463,229.475 61.048189,232.625 61.318035,234 C 62.165807,238.31981 65.714522,249.5849 67.500119,253.62449 C 71.211883,262.02168 75.529038,270.5167 76.245617,270.83333 C 76.660528,271.01667 77,271.61526 77,272.16354 C 77,272.71182 79.811047,277.26465 83.24677,282.28094 C 91.384274,294.16201 108.65999,311.73251 117.11485,316.72691 C 118.70168,317.66428 120,318.78419 120,319.21561 C 120,319.64702 120.48142,320 121.06982,320 C 121.65823,320 124.14747,321.38141 126.60146,323.06981 C 129.05546,324.7582 133.41154,327.25271 136.28164,328.61316 C 139.15174,329.97362 142.175,331.47975 143,331.96014 C 145.99182,333.70222 152.11582,336.12499 159.23228,338.38192 C 165.91762,340.50213 170.97317,341.61058 184.5,343.92195 C 192.63821,345.31255 212.28931,345.10946 222.75658,343.52658 z M 191.5,335.90635 C 173.87139,334.29363 162.14319,331.08611 144.7051,323.10853 C 140.9679,321.39884 137.4804,320 136.9551,320 C 136.42979,320 136,319.55 136,319 C 136,318.45 135.52968,318 134.95484,318 C 133.63925,318 119.70714,308.63434 115.01731,304.59728 C 111.08902,301.21576 97.52001,287.48891 94.633611,283.97647 C 87.621247,275.44316 77.301779,256.47705 73.154448,244.5 C 66.28229,224.65393 63.32132,199.40932 65.991905,183.43366 C 68.824955,166.48612 69.532072,163.09835 71.193262,158.51412 C 72.186968,155.77188 73,152.95448 73,152.25322 C 73,150.02605 80.031327,134.84646 84.234312,128 C 88.660569,120.78984 89.174495,120.06758 95.91874,111.57894 C 102.51284,103.27928 109.83641,95.833823 116,91.163452 C 117.925,89.704811 119.725,88.254119 120,87.939691 C 122.18268,85.444068 139.57159,75 141.54401,75 C 142.3448,75 143,74.55 143,74 C 143,73.45 143.59048,73 144.31217,73 C 145.03386,73 147.48713,72.1 149.76386,71 C 152.0406,69.9 154.57357,69 155.39268,69 C 156.21179,69 157.16008,68.55 157.5,68 C 157.83992,67.45 159.18992,67 160.5,67 C 161.81008,67 163.12657,66.604222 163.42553,66.120493 C 164.06916,65.079077 175.56935,62.441733 185.69155,61.014214 C 195.75362,59.595176 211.78571,59.80411 223,61.500428 C 236.17285,63.493004 237.88209,63.982699 256.5,71.098109 C 265.59565,74.574294 279.39765,82.50725 286.9051,88.574009 C 299.92775,99.097598 309.81952,109.48016 315.81217,118.91532 C 316.71507,120.3369 317.6906,121.725 317.98003,122 C 321.27173,125.12767 331.26312,145.77503 333.94894,155 C 334.66953,157.475 335.84651,161.3 336.56447,163.5 C 339.43798,172.30525 340.49917,181.95579 340.46808,199 C 340.43474,217.28474 339.73122,222.49026 335.33247,237 C 330.31759,253.54212 321.02402,271.71126 311.10742,284.36056 C 308.84221,287.24998 294.11526,302.03784 290.42662,305.12689 C 285.99227,308.84044 272.26113,318 271.12849,318 C 270.59949,318 270.01667,318.3375 269.83333,318.75 C 269.52262,319.4491 262.0318,323.26558 257.5,325.03368 C 246.3225,329.39463 236.88111,332.42074 230,333.84787 C 225.22425,334.83835 202.38697,337.20747 201,336.8563 C 200.725,336.78667 196.45,336.3592 191.5,335.90635 z M 225,324.88821 C 237.07599,322.61047 247.52487,319.18227 259,313.73305 C 266.23394,310.29785 278.33988,302.99757 280,301.06937 C 280.275,300.74996 282.28487,299.15652 284.46637,297.52839 C 289.16975,294.0181 296.76429,286.38067 301.84841,280.04819 C 303.85679,277.54669 305.74668,275.275 306.04818,275 C 308.97031,272.3347 317.99447,256.25135 322.03917,246.5 C 332.36977,221.59397 333.94849,190.66256 326.32648,162.5 C 325.43335,159.2 324.31953,156.0725 323.85131,155.55 C 323.38309,155.0275 323,153.96881 323,153.19735 C 323,150.32848 314.9663,134.7891 308.83639,125.80105 C 301.54391,115.10836 287.44073,100.4646 277.9983,93.780935 C 270.80619,88.690113 255.24634,80.44205 247.5,77.614193 C 226.29794,69.874235 200.82972,67.831623 178.5,72.080231 C 156.68006,76.231844 132.16775,88.556632 116.5076,103.25 L 112.51086,107 L 202.75543,107 L 293,107 L 293,197.74793 L 293,288.49586 L 202.45072,197.99793 L 111.90145,107.5 L 109.85981,110 C 108.73692,111.375 106.58967,113.86196 105.08815,115.52657 C 100.61738,120.48298 91.452384,134.06815 88.240274,140.5 C 84.873924,147.2407 79.748703,161.93956 78.128511,169.5 C 77.539189,172.25 76.594189,176.61177 76.028509,179.19282 C 75.462829,181.77387 75.008292,190.09887 75.018426,197.69282 C 75.052942,223.55771 80.502501,243.51041 93.401623,265 C 100.20718,276.33788 113.13609,291.26695 121.64642,297.61442 C 123.76589,299.19523 125.725,300.74996 126,301.06937 C 127.68551,303.02706 139.85148,310.26835 147.5,313.86633 C 152.45,316.19489 157.28139,318.52756 158.23643,319.05004 C 159.19147,319.57252 160.85241,320 161.92741,320 C 163.00242,320 164.12935,320.40028 164.43171,320.88951 C 164.73408,321.37874 166.44813,322.02628 168.24073,322.32848 C 170.03333,322.63069 173.975,323.4072 177,324.05406 C 189.43384,326.7129 213.14166,327.12489 225,324.88821 z M 935.5,296.5084 C 926.51223,294.63114 922.93435,293.18223 916.18036,288.68462 C 907.51075,282.91137 897.74327,271.06067 895.42039,263.49694 C 894.75183,261.31999 894.42465,264.80936 894.22461,276.25 L 893.94921,292 L 854.97461,292 L 816,292 L 816,200.5 L 816,109 L 839.5,109 L 863,109 L 863,181.5 L 863,254 L 877.25,254.00036 L 891.5,254.00072 L 891.21578,202.01825 C 890.93978,151.53751 890.99263,149.83475 893.04515,143.07725 C 895.48976,135.02892 900.53427,126.16459 905.81262,120.64199 C 909.95715,116.30569 919.40857,109 920.87397,109 C 921.40162,109 921.98333,108.63844 922.16667,108.19653 C 922.35,107.75462 925.6627,106.40462 929.52821,105.19653 C 935.32707,103.38421 938.94838,103 950.23116,103 C 957.75226,103 964.93957,103.39245 966.20295,103.87211 C 967.46633,104.35177 970.3,105.31638 972.5,106.01569 C 984.06195,109.69088 997.4054,122.33858 1003.381,135.28647 C 1007.7994,144.86035 1008,147.67103 1008,200 C 1008,254.12154 1007.8763,255.5823 1002.3336,266.92375 C 999.13842,273.46158 998.07625,274.87977 991,282.05616 C 977.90577,295.3357 956.53232,300.90136 935.5,296.5084 z M 957.39032,256.90761 C 962.94526,252.5381 963,251.97821 963,199.53151 C 963,148.05394 962.99721,148.02241 958.04801,143.54345 C 955.13145,140.904 947.42773,140.31485 943.49869,142.43077 C 936.96798,145.94779 937,145.66122 937,200.59967 C 937,236.17947 937.32593,250.74674 938.15712,252.31574 C 938.79353,253.51708 940.48103,255.51195 941.90712,256.74878 C 945.44453,259.81674 953.58579,259.90026 957.39032,256.90761 z M 423,200.5 L 423,109 L 465.10377,109 L 507.20753,109 L 514.35377,112.72907 C 532.5513,122.22496 541,136.10337 541,156.5 C 541,175.64004 533.31704,190.26726 518.25179,199.80927 C 514.15223,202.40585 512.91525,204 515,204 C 515.55,204 516,204.9 516,206 C 516,207.1 516.45,208 517,208 C 517.55,208 518,208.9 518,210 C 518,211.1 518.45,212 519,212 C 519.55,212 520,212.9 520,214 C 520,215.1 520.45,216 521,216 C 521.55,216 522,216.9 522,218 C 522,219.1 522.3375,220.00351 522.75,220.0078 C 523.64806,220.01714 526,224.85964 526,226.69936 C 526,227.41471 526.45,228 527,228 C 527.55,228 528,228.9 528,230 C 528,231.1 528.45,232 529,232 C 529.55,232 530,232.8625 530,233.91667 C 530,234.97083 530.34462,235.98333 530.76583,236.16667 C 531.18704,236.35 537.59954,248.65 545.01583,263.5 L 558.5,290.5 L 558.75529,199.75 L 559.01058,109 L 581.50529,109 L 604,109 L 604,200.5 L 604,292 L 558.25,291.92654 L 512.5,291.85309 L 500.75,268.11416 C 494.2875,255.05774 489,243.8408 489,243.18761 C 489,242.53442 488.55,242 488,242 C 487.45,242 487.00194,241.4375 487.00431,240.75 C 487.00669,240.0625 482.84419,231.18385 477.75431,221.01966 L 468.5,202.53932 L 468.2397,247.26966 L 467.97941,292 L 445.4897,292 L 423,292 L 423,200.5 z M 479.5,195.42621 C 484.84479,193.19977 486.84912,190.69789 489.98241,182.34171 C 491.57762,178.08745 491.50129,159.08377 489.86979,154.30145 C 486.87919,145.53526 481.99595,142 472.87788,142 L 468,142 L 468,170.01182 L 468,198.02364 L 472.25,197.34977 C 474.5875,196.97914 477.85,196.11354 479.5,195.42621 z M 624.76039,200.50008 L 625.02077,109 L 671.01039,109 L 717,109 L 717,125.5 L 717,142 L 693.5,142 L 670,142 L 670,161.5 L 670,181 L 691.5,181 L 713,181 L 713,198 L 713,215 L 691.5,215 L 670,215 L 670,234.5 L 670,254 L 694.5,254 L 719,254 L 719,273 L 719,292 L 671.75,292.00008 L 624.5,292.00016 L 624.76039,200.50008 z M 729,200.5 L 729,109 L 752.5,109 L 776,109 L 776,181.5 L 776,254 L 791.5,254 L 807,254 L 807,273 L 807,292 L 768,292 L 729,292 L 729,200.5 z"
       id="path2388"
       style="fill:#cd000b" />
    <path
       d="M 187,376.0315 C 181.775,375.61355 175.475,374.78084 173,374.18102 C 170.525,373.5812 165.35,372.35392 161.5,371.45373 C 140.65318,366.5794 122.61717,358.78089 104.76151,346.92084 C 101.51489,344.76438 98.477893,343 98.012619,343 C 97.547345,343 97.016667,342.65915 96.833333,342.24256 C 96.65,341.82597 94.475,339.91818 92,338.00302 C 87.248487,334.32629 72.165405,319.57428 67.969524,314.5 C 56.224061,300.29565 49.929663,290.7895 43.691171,277.83346 C 34.502817,258.75119 31.334863,248.97597 27.379094,227.5 C 25.308572,216.25908 24.995396,181.92882 26.868237,171.5 C 29.479222,156.96086 34.010455,140.33967 37.500331,132.5 C 38.234839,130.85 39.630841,127.475 40.602559,125 C 41.574276,122.525 43.255786,118.925 44.339248,117 C 45.422709,115.075 47.55772,111.15243 49.083717,108.28318 C 51.862775,103.05787 57.485531,94.452634 59.452452,92.414555 C 60.028604,91.81756 62.075,89.353623 64,86.939138 C 75.932939,71.971919 87.680336,61.027306 102.63817,50.941393 C 123.66591,36.762605 142.72214,28.844217 170.5,22.742944 C 184.20543,19.732612 221.01428,19.482438 233.5,22.31476 C 256.227,27.470264 267.42967,31.315987 284.02152,39.658096 C 292.00835,43.673746 299.43335,47.643434 300.52152,48.479625 C 301.60968,49.315816 305.58703,52.271624 309.36006,55.048088 C 320.91536,63.551285 337.65621,79.979362 343.9584,89 C 345.30328,90.925 346.6841,92.725 347.02688,93 C 348.27289,93.999634 355.77279,105.60236 357.69234,109.5 C 358.77581,111.7 360.55518,115.075 361.64649,117 C 362.73779,118.925 364.42572,122.525 365.39744,125 C 366.36916,127.475 367.76516,130.85 368.49967,132.5 C 372.0754,140.53253 377.0672,158.17039 379.11278,170 C 380.80311,179.77524 381.35839,208.76562 380.05131,219 C 378.28884,232.80015 373.64832,251.37041 369.05616,263 C 362.77355,278.91066 351.65091,298.18482 341.64509,310.5 C 335.15245,318.49116 319.10658,334.05863 311.5,339.74633 C 307.65,342.62511 304.05,345.33509 303.5,345.76851 C 302.60815,346.47133 299.22731,348.50921 289.5,354.20731 C 287.85,355.17386 284.475,356.92387 282,358.09622 C 265.18348,366.06185 256.03105,369.01377 231.5,374.38391 C 223.07263,376.22876 200.09945,377.07933 187,376.0315 z M 216.14405,374.00088 C 242.89678,371.41983 260.46406,366.45891 282.5,355.26225 C 287.45,352.74711 292.50899,350.19668 293.7422,349.59463 C 294.97541,348.99258 295.98791,348.1625 295.9922,347.75 C 295.99649,347.3375 296.50535,347 297.12301,347 C 298.49852,347 308.89785,339.62863 314.94486,334.36733 C 324.64876,325.92428 339.58745,310.30574 343.99035,304 C 345.33445,302.075 347.01149,299.90536 347.71709,299.17857 C 348.42269,298.45179 349,297.47143 349,297 C 349,296.52857 349.69123,295.45163 350.53606,294.6068 C 352.21151,292.93135 365.36002,267.74052 366.25049,264.5 C 366.55277,263.4 367.87769,259.575 369.19477,256 C 371.46583,249.83556 373.98472,239.78969 377.46913,223 C 379.50392,213.19538 379.58068,183.66475 377.59599,174.19741 C 376.82378,170.51383 375.66343,164.8 375.01743,161.5 C 374.37143,158.2 373.42824,154.0375 372.92145,152.25 C 372.41465,150.4625 371.52025,147.3125 370.9339,145.25 C 369.85449,141.45317 368.492,137.92587 366.88333,134.76357 C 366.3975,133.80853 366,132.54674 366,131.9596 C 366,130.48937 355.67958,109.57982 354.75,109.16667 C 354.3375,108.98333 354,108.40051 354,107.87151 C 354,106.72002 344.77604,92.918697 341.10231,88.573376 C 337.71561,84.567558 315.07982,61.947062 312.49536,59.985754 C 311.39791,59.152918 308.925,57.374599 307,56.033934 C 305.075,54.693268 303.275,53.289338 303,52.914089 C 302.725,52.53884 300.87415,51.321975 298.88701,50.209944 C 291.28294,45.954623 290.48584,45.485157 290,44.975799 C 288.73658,43.651229 266.51004,33.338922 261.62808,31.812259 C 227.84138,21.246646 201.8843,19.359388 170,25.150266 C 163.06101,26.410536 152.18308,29.256869 147.5,31.037645 C 146.4,31.455928 143.925,32.338987 142,33 C 136.08343,35.03165 134.7921,35.582028 125.5,40.032469 C 120.55,42.403266 116.35,44.715832 116.16667,45.171505 C 115.98333,45.627177 115.40357,46 114.87831,46 C 113.99208,46 98.560195,56.062981 93.662931,59.834338 C 89.598654,62.964217 68.414101,84.49178 65.454015,88.5 C 63.829307,90.7 61.921732,93.110411 61.214959,93.85647 C 59.013382,96.18042 52,106.83969 52,107.8618 C 52,108.39614 51.6625,108.98333 51.25,109.16667 C 50.163229,109.64968 40,130.40051 40,132.13642 C 40,132.94139 39.594032,134.0275 39.097849,134.55 C 38.039284,135.66471 35.081151,143.986 33.961024,149 C 33.530979,150.925 32.511063,155.2 31.694544,158.5 C 30.878024,161.8 29.628083,167.65 28.916895,171.5 C 27.192538,180.83478 27.178442,215.28033 28.895208,224.5 C 31.558227,238.80141 35.608832,254.14736 38.925404,262.5 C 42.129633,270.5697 53.458341,292.31259 55.75,294.79099 C 56.4375,295.53452 57,296.495 57,296.92541 C 57,297.35581 58.0125,298.81791 59.25,300.17451 C 60.4875,301.53112 62.625,304.15205 64,305.99879 C 72.51565,317.43603 89.14012,333.81473 98.790763,340.27522 C 101.38084,342.00911 104.09464,344.00651 104.82143,344.71388 C 105.54821,345.42124 106.52857,346 107,346 C 107.47143,346 108.46548,346.5625 109.20901,347.25 C 115.8551,353.39532 143.76451,365.23713 161.52358,369.4468 C 165.36061,370.35634 169.625,371.36596 171,371.69041 C 174.43687,372.50138 195.4578,374.72224 201.14405,374.87513 C 203.69827,374.94381 210.44827,374.5504 216.14405,374.00088 z M 178.5,363.8652 C 162.82528,361.04887 153.73862,358.60405 142,354.04467 C 134.03064,350.9493 114,340.76865 114,339.81356 C 114,339.3661 113.4375,338.99396 112.75,338.98659 C 112.0625,338.97921 110.375,338.07437 109,336.97583 C 107.625,335.87729 102.7615,332.01264 98.192227,328.38773 C 89.307607,321.33934 79.374679,311.70345 75.114387,306 C 73.676474,304.075 71.906503,301.87436 71.181118,301.10969 C 70.455733,300.34502 69.105733,298.5452 68.181118,297.11009 C 67.256503,295.67498 65.825,293.70098 65,292.72342 C 62.732993,290.0372 59.598382,284.59356 53.642674,273 C 33.344557,233.48709 30.386912,184.42231 45.717065,141.52097 C 48.563427,133.55545 57.38501,115.33704 59.558669,112.93517 C 60.351401,112.05921 61,111.01576 61,110.61639 C 61,109.87148 68.869877,97.899416 69.950784,97 C 70.281276,96.725 72.11505,94.478825 74.025839,92.0085 C 78.708601,85.954483 90.820041,73.884897 96.709761,69.402969 C 99.344392,67.39808 101.725,65.4368 102,65.044568 C 103.32151,63.159698 121.45844,51.877931 129,48.249674 C 154.72486,35.873406 173.51177,31.709235 203.5,31.736541 C 221.03412,31.752506 224.97953,32.067072 235.5,34.287893 C 256.49752,38.720366 272.14398,44.818879 289.5,55.335446 C 296.76025,59.734661 303.70949,64.49845 305,65.960884 C 305.275,66.27252 307.96876,68.546308 310.98613,71.013747 C 319.13265,77.675513 327.08587,85.927676 334.16355,95.062339 C 335.62851,96.953053 337.76601,99.581354 338.91355,100.90301 C 340.0611,102.22467 341,103.65502 341,104.08158 C 341,104.50814 341.7253,105.58244 342.61177,106.46892 C 343.49825,107.35539 347.24023,114.02503 350.92729,121.29034 C 370.22858,159.32336 374.90159,199.93699 364.59919,240.11443 C 358.80576,262.70775 346.85804,286.73387 333.32744,303 C 328.07492,309.31443 312.36001,324.90929 307.08544,329.04152 C 304.65744,330.94369 302.18244,332.97271 301.58544,333.55046 C 299.62506,335.44765 280.64248,346.56396 273.79612,349.82405 C 261.67148,355.59754 245.2253,360.57926 228.5,363.54472 C 219.51094,365.13851 186.75533,365.34846 178.5,363.8652 z M 225.75658,359.52658 C 264.66165,353.64328 297.57838,335.81094 324.56967,305.99549 C 329.35479,300.7097 341.00551,285.1623 341.80176,283 C 342.10555,282.175 342.6302,281.275 342.96764,281 C 344.21137,279.9864 353.64441,260.35449 354.98002,256 C 355.73915,253.525 356.66881,251.05 357.04593,250.5 C 357.42305,249.95 357.97528,248.375 358.2731,247 C 358.57092,245.625 359.48761,241.8 360.31018,238.5 C 367.39805,210.06493 367.39805,186.93507 360.31018,158.5 C 359.48761,155.2 358.57092,151.375 358.2731,150 C 357.97528,148.625 357.42305,147.05 357.04593,146.5 C 356.66881,145.95 355.73624,143.475 354.97355,141 C 353.06341,134.80137 341.76234,112.37913 338.5,108.31514 C 337.95,107.62999 337.03781,106.49129 336.47292,105.7847 C 335.90803,105.07812 334.34116,102.925 332.991,101 C 326.84341,92.235068 311.68983,76.818496 302.46687,69.946131 C 299.18509,67.500759 295.91192,64.944067 295.19317,64.264594 C 293.43932,62.60661 282.11727,56 281.02976,56 C 280.55506,56 280.01667,55.6625 279.83333,55.25 C 279.27297,53.989185 261.89331,46 259.7109,46 C 258.9899,46 257.9725,45.641864 257.45,45.204141 C 255.60295,43.656783 240.07011,39.601726 226.4398,37.108512 C 218.74553,35.701099 186.85518,35.66331 179.82629,37.053277 C 176.89683,37.632579 172.25,38.551386 169.5,39.09507 C 161.96931,40.583912 148.51544,44.495872 142.5,46.945819 C 137.22663,49.093536 122.46149,56.569268 122.16667,57.240778 C 121.98333,57.65835 121.37106,58 120.80607,58 C 119.85298,58 110.07846,64.51181 105.5,68.196942 C 90.911645,79.938877 84.641536,85.846427 79.174725,93 C 77.703626,94.925 75.4875,97.620402 74.25,98.989782 C 73.0125,100.35916 72,101.78952 72,102.16835 C 72,102.54719 71.336375,103.52077 70.525278,104.33187 C 69.71418,105.14296 67.356164,108.66261 65.285241,112.15329 C 63.214319,115.64398 60.985482,119.4 60.332271,120.5 C 57.905188,124.58718 52,136.97911 52,137.98512 C 52,138.55823 51.602502,139.80853 51.116671,140.76357 C 49.531129,143.8804 48.249191,147.41918 47.046222,152 C 46.396263,154.475 45.487602,157.85 45.026976,159.5 C 44.130434,162.71149 42.688653,171.07328 41.027987,182.69263 C 39.714723,191.88129 39.714723,205.11871 41.027987,214.30737 C 42.688653,225.92672 44.130434,234.28851 45.026976,237.5 C 45.487602,239.15 46.396263,242.525 47.046222,245 C 48.249191,249.58082 49.531129,253.1196 51.116671,256.23643 C 51.602502,257.19147 52,258.38886 52,258.8973 C 52,260.13615 58.530524,273.59905 61.294486,278.05819 C 62.507519,280.0152 64.828394,283.8402 66.451988,286.55819 C 68.075581,289.27619 69.672262,291.725 70.000167,292 C 70.328073,292.275 71.689211,294.075 73.02492,296 C 80.162689,306.28683 91.151198,317.20211 106.5,329.252 C 107.05,329.68379 108.58135,330.92873 109.90301,332.01854 C 111.22467,333.10834 112.65502,334 113.08158,334 C 113.50814,334 114.5017,334.64456 115.2895,335.43236 C 118.72036,338.86322 142.31311,349.93831 154,353.60415 C 164.19594,356.80232 169.04574,357.8946 182,359.91036 C 191.09501,361.3256 215.26168,361.11364 225.75658,359.52658 z M 189.5,350.94071 C 165.25666,349.15312 142.80682,341.6029 121.00449,327.90463 C 117.43196,325.66003 114.28196,323.52575 114.00449,323.16177 C 113.72702,322.7978 111.925,321.39571 110,320.04603 C 102.73096,314.94947 88.59185,301.32067 83.475321,294.47869 C 81.838895,292.29041 79.92701,289.89487 79.226688,289.15526 C 78.526366,288.41565 77.226076,286.39065 76.337155,284.65526 C 75.448234,282.91987 74.407791,281.275 74.02506,281 C 73.425375,280.56911 71.878491,277.88254 66.251976,267.5 C 65.655863,266.4 64.406228,263.7 63.475009,261.5 C 62.54379,259.3 61.122757,256.15 60.317159,254.5 C 57.325101,248.37176 53.306724,233.29297 51.092461,219.8847 C 49.709474,211.51015 49.67297,185.20576 51.033527,177.41678 C 53.771486,161.74239 57.220436,148.48505 59.984096,143.0119 C 60.542843,141.90535 61.45,140.10611 62,139.01357 C 62.55,137.92103 63,136.34603 63,135.51357 C 63,134.68111 63.45,134 64,134 C 64.55,134 65,133.33869 65,132.53042 C 65,131.05153 66.002422,129.10481 71.967213,119 C 81.452706,102.93085 101.51123,81.12751 113.11485,74.273087 C 114.70168,73.335721 116,72.215808 116,71.784392 C 116,71.352977 116.50876,71 117.13057,71 C 117.75238,71 120.33988,69.517924 122.88057,67.706497 C 134.52662,59.403247 155.48543,51.388918 177.5,46.820864 C 185.76888,45.10506 220.68361,45.118567 228.5,46.840593 C 241.01629,49.598055 243.74538,50.325116 252.5,53.23448 C 260.92885,56.035583 278.88863,64.323766 280,65.92534 C 280.275,66.321639 281.175,66.897195 282,67.204354 C 282.825,67.511513 287.775,70.824129 293,74.565724 C 302.57373,81.421423 317.03524,95.101173 322.52978,102.49919 C 324.1634,104.69874 326.25249,107.33351 327.17219,108.35423 C 328.09189,109.37495 329.38399,111.51281 330.04351,113.10504 C 330.70303,114.69727 331.63805,116 332.12132,116 C 332.60459,116 333,116.47162 333,117.04804 C 333,117.62446 334.48295,120.43696 336.29544,123.29804 C 351.88913,147.91322 359.49323,188.27067 354.53232,220.08713 C 351.79407,237.64869 348.29924,249.21805 340.66313,266 C 338.44166,270.88215 327.55676,287.60463 322.11209,294.5 C 315.47323,302.90773 303.20382,315.01284 297,319.27581 C 294.525,320.97652 292.275,322.66784 292,323.0343 C 291.725,323.40076 290.40334,324.27883 289.06299,324.98557 C 287.72263,325.6923 286.14763,326.66601 285.56299,327.14936 C 282.74043,329.48288 276.63765,333.04931 269.91656,336.29305 C 245.32983,348.15913 218.37136,353.06954 189.5,350.94071 z M 222.75658,343.52658 C 234.09671,341.8117 244.83284,339.10551 254.01604,335.6472 C 261.31465,332.8986 275.32098,325.90279 275.83333,324.75 C 276.01667,324.3375 276.61812,324 277.16991,324 C 278.33857,324 291.56285,314.98756 294.74693,312.02114 C 295.94012,310.90951 297.18796,310 297.51989,310 C 298.70724,310 315.16154,292.62507 318.25262,288.10727 C 319.98637,285.57327 321.98223,282.91192 322.68786,282.19317 C 324.27971,280.57168 329.71578,271.31884 333.37638,264 C 334.88937,260.975 336.51119,257.825 336.98042,257 C 338.65614,254.05373 341.33051,247.47625 342.1582,244.26548 C 342.62119,242.46947 343.45651,239.3125 344.01447,237.25 C 346.3751,228.52393 347.17413,223.80637 348.37585,211.5 C 350.04517,194.40512 348.53087,176.58084 343.95809,159.5 C 343.36912,157.3 342.5338,154.14303 342.10182,152.48452 C 340.58332,146.65444 334.00576,132.96668 327.86502,122.85805 C 320.41567,110.59524 315.30251,104.05946 306.07073,95 C 297.11651,86.212917 295.89341,85.148835 290,81.018666 C 288.075,79.669604 285.90536,77.988514 285.17857,77.282913 C 284.45179,76.577311 283.47143,76 283,76 C 282.52857,76 281.53081,75.4375 280.78276,74.75 C 277.10673,71.371533 259.11155,62.718559 248.5,59.226842 C 240.06929,56.452729 236.49046,55.574569 223.20078,53.019018 C 216.22459,51.677527 190.4945,51.71313 182.1153,53.075868 C 154.82972,57.513413 130.3708,68.51888 110,85.524656 C 86.634618,105.03035 69.772918,131.13844 62.223632,159.5 C 58.791723,172.39318 57.974826,176.58777 56.902481,186.82301 C 55.622492,199.04015 56.847311,217.93018 59.507534,227 C 60.233463,229.475 61.048189,232.625 61.318035,234 C 62.165807,238.31981 65.714522,249.5849 67.500119,253.62449 C 71.211883,262.02168 75.529038,270.5167 76.245617,270.83333 C 76.660528,271.01667 77,271.61526 77,272.16354 C 77,272.71182 79.811047,277.26465 83.24677,282.28094 C 91.384274,294.16201 108.65999,311.73251 117.11485,316.72691 C 118.70168,317.66428 120,318.78419 120,319.21561 C 120,319.64702 120.48142,320 121.06982,320 C 121.65823,320 124.14747,321.38141 126.60146,323.06981 C 129.05546,324.7582 133.41154,327.25271 136.28164,328.61316 C 139.15174,329.97362 142.175,331.47975 143,331.96014 C 145.99182,333.70222 152.11582,336.12499 159.23228,338.38192 C 165.91762,340.50213 170.97317,341.61058 184.5,343.92195 C 192.63821,345.31255 212.28931,345.10946 222.75658,343.52658 z M 191.5,335.90635 C 173.87139,334.29363 162.14319,331.08611 144.7051,323.10853 C 140.9679,321.39884 137.4804,320 136.9551,320 C 136.42979,320 136,319.55 136,319 C 136,318.45 135.52968,318 134.95484,318 C 133.63925,318 119.70714,308.63434 115.01731,304.59728 C 111.08902,301.21576 97.52001,287.48891 94.633611,283.97647 C 87.621247,275.44316 77.301779,256.47705 73.154448,244.5 C 66.28229,224.65393 63.32132,199.40932 65.991905,183.43366 C 68.824955,166.48612 69.532072,163.09835 71.193262,158.51412 C 72.186968,155.77188 73,152.95448 73,152.25322 C 73,150.02605 80.031327,134.84646 84.234312,128 C 88.660569,120.78984 89.174495,120.06758 95.91874,111.57894 C 102.51284,103.27928 109.83641,95.833823 116,91.163452 C 117.925,89.704811 119.725,88.254119 120,87.939691 C 122.18268,85.444068 139.57159,75 141.54401,75 C 142.3448,75 143,74.55 143,74 C 143,73.45 143.59048,73 144.31217,73 C 145.03386,73 147.48713,72.1 149.76386,71 C 152.0406,69.9 154.57357,69 155.39268,69 C 156.21179,69 157.16008,68.55 157.5,68 C 157.83992,67.45 159.18992,67 160.5,67 C 161.81008,67 163.12657,66.604222 163.42553,66.120493 C 164.06916,65.079077 175.56935,62.441733 185.69155,61.014214 C 195.75362,59.595176 211.78571,59.80411 223,61.500428 C 236.17285,63.493004 237.88209,63.982699 256.5,71.098109 C 265.59565,74.574294 279.39765,82.50725 286.9051,88.574009 C 299.92775,99.097598 309.81952,109.48016 315.81217,118.91532 C 316.71507,120.3369 317.6906,121.725 317.98003,122 C 321.27173,125.12767 331.26312,145.77503 333.94894,155 C 334.66953,157.475 335.84651,161.3 336.56447,163.5 C 339.43798,172.30525 340.49917,181.95579 340.46808,199 C 340.43474,217.28474 339.73122,222.49026 335.33247,237 C 330.31759,253.54212 321.02402,271.71126 311.10742,284.36056 C 308.84221,287.24998 294.11526,302.03784 290.42662,305.12689 C 285.99227,308.84044 272.26113,318 271.12849,318 C 270.59949,318 270.01667,318.3375 269.83333,318.75 C 269.52262,319.4491 262.0318,323.26558 257.5,325.03368 C 246.3225,329.39463 236.88111,332.42074 230,333.84787 C 225.22425,334.83835 202.38697,337.20747 201,336.8563 C 200.725,336.78667 196.45,336.3592 191.5,335.90635 z M 225,324.88821 C 237.07599,322.61047 247.52487,319.18227 259,313.73305 C 266.23394,310.29785 278.33988,302.99757 280,301.06937 C 280.275,300.74996 282.28487,299.15652 284.46637,297.52839 C 289.16975,294.0181 296.76429,286.38067 301.84841,280.04819 C 303.85679,277.54669 305.74668,275.275 306.04818,275 C 308.97031,272.3347 317.99447,256.25135 322.03917,246.5 C 332.36977,221.59397 333.94849,190.66256 326.32648,162.5 C 325.43335,159.2 324.31953,156.0725 323.85131,155.55 C 323.38309,155.0275 323,153.96881 323,153.19735 C 323,150.32848 314.9663,134.7891 308.83639,125.80105 C 301.54391,115.10836 287.44073,100.4646 277.9983,93.780935 C 270.80619,88.690113 255.24634,80.44205 247.5,77.614193 C 223.25186,68.762241 192.18301,67.431344 169,74.251487 C 154.97735,78.37677 137.57699,86.769359 127.39591,94.318086 C 112.35264,105.47187 96.246938,124.46766 88.240274,140.5 C 84.873924,147.2407 79.748703,161.93956 78.128511,169.5 C 77.539189,172.25 76.594189,176.61177 76.028509,179.19282 C 75.462829,181.77387 75.008292,190.09887 75.018426,197.69282 C 75.052942,223.55771 80.502501,243.51041 93.401623,265 C 100.20718,276.33788 113.13609,291.26695 121.64642,297.61442 C 123.76589,299.19523 125.725,300.74996 126,301.06937 C 127.68551,303.02706 139.85148,310.26835 147.5,313.86633 C 152.45,316.19489 157.28139,318.52756 158.23643,319.05004 C 159.19147,319.57252 160.85241,320 161.92741,320 C 163.00242,320 164.12935,320.40028 164.43171,320.88951 C 164.73408,321.37874 166.44813,322.02628 168.24073,322.32848 C 170.03333,322.63069 173.975,323.4072 177,324.05406 C 189.43384,326.7129 213.14166,327.12489 225,324.88821 z"
       id="path2386"
       style="fill:#020202" />
  </g>
</svg>
